<svg width="163" height="157" viewBox="0 0 163 157" fill="none" xmlns="http://www.w3.org/2000/svg">
<g style="mix-blend-mode:screen">
<path d="M78.0647 156.03C121.179 156.03 156.129 121.101 156.129 78.0148C156.129 34.9284 121.179 0 78.0647 0C34.9508 0 0 34.9284 0 78.0148C0 121.101 34.9508 156.03 78.0647 156.03Z" fill="url(#paint0_radial_34_14442)"/>
</g>
<path fill-rule="evenodd" clip-rule="evenodd" d="M36.4395 115.402C27.8117 115.402 20.8431 108.437 20.8431 99.8152V50.8176C20.8431 42.1954 27.8117 35.2312 36.4395 35.2312H147.356C155.984 35.2312 162.952 42.1954 162.952 50.8176V99.8152C162.952 108.437 155.984 115.402 147.356 115.402H36.4395Z" fill="#D98200"/>
<path opacity="0.59" d="M36.4396 115.402H147.356C155.984 115.402 162.952 108.437 162.952 99.8152V73.2852C143.374 85.7212 117.325 96.1673 91.8563 87.628C69.6232 80.0835 43.0763 78.8399 20.7603 80.4152V99.8152C20.7603 108.437 27.8118 115.402 36.4396 115.402Z" fill="#D98200"/>
<path fill-rule="evenodd" clip-rule="evenodd" d="M24.9912 115.402C16.3634 115.402 9.39493 108.437 9.39493 99.8152V50.8176C9.39493 42.1954 16.3634 35.2312 24.9912 35.2312H135.908C144.536 35.2312 151.504 42.1954 151.504 50.8176V99.8152C151.504 108.437 144.536 115.402 135.908 115.402H24.9912Z" fill="#FDF5A7"/>
<path fill-rule="evenodd" clip-rule="evenodd" d="M147.937 99.9811C147.937 106.696 142.462 112.168 135.742 112.168H25.1573C18.4376 112.168 12.9622 106.696 12.9622 99.9811V50.6518C12.9622 43.9364 18.4376 38.4646 25.1573 38.4646H135.742C142.462 38.4646 147.937 43.9364 147.937 50.6518V99.9811Z" fill="url(#paint1_linear_34_14442)"/>
<path d="M42.9105 93.5144C42.2468 93.5144 41.4173 93.5143 40.5047 93.4314C39.5922 93.3485 38.5966 93.3485 37.6011 93.1827C36.6056 93.0998 35.6101 92.934 34.6146 92.6853C33.619 92.5195 32.7064 92.2708 31.9598 91.9391C29.7199 91.1101 28.5586 89.6178 28.5586 87.4622V58.9424C28.5586 58.1134 28.8075 57.4501 29.2223 56.9527C29.72 56.4553 30.3007 56.1236 31.1303 55.792C32.5406 55.2946 34.2828 54.963 36.3568 54.7142C38.4307 54.4655 40.5876 54.3826 42.7445 54.3826C47.971 54.3826 51.953 55.2946 54.7736 57.0356C57.5942 58.7766 59.0046 61.5125 59.0046 65.1604C59.0046 66.9843 58.5068 68.5596 57.4284 69.8861C56.3499 71.2126 54.9395 72.2075 53.1144 72.7878C55.1884 73.3681 56.8476 74.363 58.175 75.9382C59.5023 77.4305 60.2489 79.3374 60.2489 81.6588C60.2489 85.7212 58.7557 88.7058 55.7692 90.6126C52.8656 92.5195 48.5517 93.5144 42.9105 93.5144ZM38.9285 69.969H43.4082C45.1504 69.969 46.3948 69.6373 47.2244 68.9741C48.054 68.3108 48.3858 67.3989 48.3858 66.0724C48.3858 64.9946 47.8881 64.0826 46.9755 63.4194C46.063 62.7561 44.6527 62.4245 42.8276 62.4245C42.2469 62.4245 41.5002 62.4245 40.7536 62.5074C39.924 62.5074 39.3433 62.5903 38.9285 62.6732V69.969ZM38.9285 84.8921C39.5092 85.0579 40.2558 85.1408 41.0854 85.2237C41.9979 85.3066 42.8275 85.3066 43.6571 85.3066C45.3163 85.3066 46.6437 84.975 47.7221 84.3118C48.8006 83.6485 49.3813 82.5707 49.3813 81.1613C49.3813 79.8348 48.9665 78.84 48.0539 78.2596C47.1414 77.6793 45.8141 77.4305 43.989 77.4305H39.0114V84.8921H38.9285Z" fill="white"/>
<path d="M74.269 56.6211C74.9327 56.2066 76.0112 55.792 77.4215 55.4604C78.8318 55.1288 80.2421 54.8801 81.6524 54.8801C83.7264 54.8801 85.4685 55.2117 87.0447 55.792C88.6209 56.3724 89.6164 57.2843 90.0312 58.6108C90.7779 60.7664 91.5246 63.1707 92.4371 65.9895C93.2667 68.8083 94.1792 71.71 95.0088 74.6947C95.8384 77.6793 96.668 80.6639 97.4976 83.5656C98.3272 86.4673 98.9909 89.0374 99.6545 91.2759C99.1568 91.8562 98.4101 92.2708 97.4146 92.6853C96.4191 93.0169 95.2577 93.1827 93.9303 93.1827C92.9348 93.1827 92.1053 93.0998 91.4416 92.934C90.778 92.7682 90.1972 92.5195 89.7824 92.1879C89.3676 91.8563 89.0358 91.4417 88.704 90.9443C88.4551 90.4468 88.2062 89.7836 88.0403 89.1203L86.9618 84.8921H75.9282C75.5963 86.1357 75.2645 87.3793 74.9327 88.7058C74.6009 90.0323 74.2691 91.2759 73.9372 92.5195C73.3565 92.6853 72.7758 92.934 72.1121 93.0169C71.4484 93.1827 70.7018 93.2656 69.7893 93.2656C67.7153 93.2656 66.139 92.934 65.1434 92.1879C64.1479 91.4417 63.6502 90.5297 63.6502 89.2032C63.6502 88.6229 63.7332 88.0426 63.8991 87.4622C64.065 86.8819 64.231 86.2186 64.4799 85.4725C64.7288 84.3947 65.1436 82.9853 65.6413 81.41C66.1391 79.7519 66.7198 78.0109 67.3005 76.104C67.8812 74.1972 68.5448 72.2904 69.2914 70.3006C69.9551 68.3109 70.6188 66.404 71.2825 64.663C71.8632 62.922 72.4439 61.3468 72.9416 59.9373C73.5224 58.445 73.9372 57.3672 74.269 56.6211ZM81.5695 64.4972C80.9888 66.2382 80.325 68.1451 79.6613 70.2177C78.9147 72.2904 78.334 74.4459 77.7533 76.6015H85.3026C84.7219 74.363 84.1411 72.2904 83.5604 70.1348C82.9797 68.0622 82.399 66.1553 81.9013 64.4972H81.5695Z" fill="white"/>
<path d="M115.334 80.581V92.2708C114.919 92.3537 114.172 92.5195 113.26 92.6024C112.264 92.6853 111.352 92.7682 110.439 92.7682C109.527 92.7682 108.697 92.6853 107.95 92.5195C107.204 92.3537 106.623 92.1049 106.208 91.7733C105.711 91.4417 105.379 90.8614 105.13 90.281C104.881 89.6178 104.798 88.7887 104.798 87.7109V58.9424C104.798 58.1134 105.047 57.4501 105.462 56.9527C105.959 56.4553 106.54 56.1236 107.37 55.792C108.78 55.2946 110.356 54.963 112.181 54.7142C114.007 54.4655 115.997 54.3826 118.071 54.3826C123.713 54.3826 127.944 55.5433 130.764 57.9476C133.585 60.2689 135.078 63.5023 135.078 67.5647C135.078 70.0519 134.414 72.2074 133.087 74.0314C131.76 75.8553 130.266 77.1818 128.441 78.1767C129.935 80.1664 131.345 82.0733 132.755 83.8143C134.166 85.5554 135.327 87.1306 136.157 88.54C135.742 89.9494 134.995 91.0272 133.917 91.7733C132.838 92.5195 131.594 92.934 130.266 92.934C129.354 92.934 128.607 92.8511 127.944 92.6024C127.28 92.4366 126.699 92.1049 126.201 91.7733C125.704 91.4417 125.289 90.9443 124.874 90.4468C124.459 89.9494 124.045 89.369 123.713 88.7058L118.569 80.4981H115.334V80.581ZM119.15 72.4562C120.726 72.4562 121.888 72.0416 122.8 71.2955C123.713 70.4664 124.127 69.3057 124.127 67.8134C124.127 66.2382 123.63 65.0775 122.634 64.3314C121.639 63.5023 120.062 63.1707 117.905 63.1707C117.325 63.1707 116.827 63.1707 116.412 63.2536C116.08 63.2536 115.666 63.3365 115.168 63.4194V72.5391H119.15V72.4562Z" fill="white"/>
<defs>
<radialGradient id="paint0_radial_34_14442" cx="0" cy="0" r="1" gradientUnits="userSpaceOnUse" gradientTransform="translate(78.0747 78.0264) scale(76.6262 76.5772)">
<stop offset="7e-08" stop-color="#FCC710"/>
<stop offset="0.0387" stop-color="#EEBC0F"/>
<stop offset="0.2474" stop-color="#A7840B"/>
<stop offset="0.4443" stop-color="#6B5507"/>
<stop offset="0.6233" stop-color="#3D3004"/>
<stop offset="0.7814" stop-color="#1C1602"/>
<stop offset="0.9123" stop-color="#070600"/>
<stop offset="1"/>
</radialGradient>
<linearGradient id="paint1_linear_34_14442" x1="80.4505" y1="40.1841" x2="80.4505" y2="110.275" gradientUnits="userSpaceOnUse">
<stop stop-color="#FE4521"/>
<stop offset="0.0566" stop-color="#F63D1E"/>
<stop offset="0.3103" stop-color="#D61C12"/>
<stop offset="0.5215" stop-color="#C3070B"/>
<stop offset="0.6632" stop-color="#BC0008"/>
<stop offset="1" stop-color="#C80007"/>
</linearGradient>
</defs>
</svg>
