<svg width="199" height="167" viewBox="0 0 199 167" fill="none" xmlns="http://www.w3.org/2000/svg">
<path opacity="0.01" d="M101.459 155.377C146.737 149.342 179.204 112.699 173.977 73.5314C168.75 34.3642 127.808 7.50527 82.5299 13.5403C37.2521 19.5753 4.7848 56.2189 10.012 95.3861C15.2392 134.553 56.1816 161.412 101.459 155.377Z" fill="#480036"/>
<path opacity="0.0124" d="M173.502 73.5969C178.729 112.563 146.458 148.959 101.411 154.928C56.3638 160.897 15.7137 134.201 10.4873 95.3183C5.26086 56.3524 37.532 19.9565 82.5789 13.9873C127.626 7.93513 168.359 34.631 173.502 73.5969Z" fill="#490036"/>
<path opacity="0.0186" d="M173.088 73.6798C178.231 112.397 146.126 148.627 101.411 154.596C56.6961 160.566 16.2118 134.036 10.9854 95.3184C5.84194 56.6011 37.9472 20.3711 82.6622 14.4018C127.46 8.43259 167.861 34.9626 173.088 73.6798Z" fill="#4A0136"/>
<path opacity="0.0248" d="M172.59 73.6798C177.733 112.148 145.794 148.13 101.328 154.099C56.8615 160.068 16.6262 133.621 11.4828 95.1525C6.33928 56.684 38.2787 20.7027 82.7449 14.7335C127.211 8.84712 167.446 35.2113 172.59 73.6798Z" fill="#4B0136"/>
<path opacity="0.0311" d="M172.092 73.7627C177.236 111.983 145.462 147.798 101.245 153.684C57.0276 159.571 17.0412 133.372 11.8977 95.0696C6.75422 56.7669 38.5277 21.0343 82.745 15.148C127.045 9.34454 167.032 35.5429 172.092 73.7627Z" fill="#4C0137"/>
<path opacity="0.0373" d="M171.677 73.8456C176.738 111.9 145.213 147.466 101.245 153.27C57.2765 159.156 17.5391 133.041 12.4785 95.0697C7.41803 57.0157 38.9425 21.4489 82.9109 15.6454C126.796 9.7591 166.534 35.7917 171.677 73.8456Z" fill="#4D0137"/>
<path opacity="0.0435" d="M171.18 73.9286C176.24 111.734 144.882 147.052 101.162 152.938C57.4426 158.742 17.954 132.875 12.8935 95.0697C7.83295 57.2644 39.1914 21.9463 82.911 16.06C126.631 10.1736 166.119 36.1233 171.18 73.9286Z" fill="#4E0137"/>
<path opacity="0.0497" d="M170.682 74.0114C175.659 111.568 144.549 146.72 101.079 152.524C57.6082 158.327 18.3684 132.543 13.3079 94.9867C8.33034 57.4302 39.4401 22.2779 82.9107 16.4745C126.381 10.671 165.704 36.372 170.682 74.0114Z" fill="#4F0137"/>
<path opacity="0.0559" d="M170.184 74.0115C175.162 111.319 144.218 146.306 100.996 152.026C57.7743 157.747 18.7835 132.212 13.806 94.8209C8.82841 57.5131 39.7722 22.5267 82.9939 16.8061C126.216 11.0856 165.207 36.7037 170.184 74.0115Z" fill="#500237"/>
<path opacity="0.0621" d="M169.769 74.0944C174.747 111.236 143.969 145.891 100.996 151.612C58.1059 157.332 19.281 131.88 14.3034 94.821C9.32589 57.679 40.1037 23.0241 83.0766 17.3036C125.967 11.5831 164.791 36.9524 169.769 74.0944Z" fill="#510237"/>
<path opacity="0.0683" d="M169.271 74.1772C174.166 111.07 143.637 145.56 100.913 151.28C58.272 157.001 19.6959 131.714 14.7183 94.8209C9.82375 57.9276 40.3527 23.4386 83.0767 17.718C125.801 11.9975 164.377 37.2839 169.271 74.1772Z" fill="#520237"/>
<path opacity="0.0745" d="M168.774 74.2601C173.668 110.905 143.222 145.228 100.83 150.866C58.4377 156.503 20.1106 131.383 15.216 94.738C10.3214 58.0934 40.7675 23.7702 83.1597 18.1326C125.552 12.4121 163.879 37.5327 168.774 74.2601Z" fill="#530237"/>
<path opacity="0.0807" d="M100.8 150.442C142.945 144.825 173.166 110.728 168.302 74.2835C163.439 37.8394 125.331 12.8494 83.1871 18.4667C41.0429 24.084 10.8212 58.1815 15.685 94.6256C20.5488 131.07 58.6563 156.06 100.8 150.442Z" fill="#540238"/>
<path opacity="0.087" d="M100.749 150.081C142.621 144.5 172.646 110.615 167.813 74.3982C162.979 38.181 125.117 13.3455 83.2453 18.9265C41.3737 24.5075 11.3483 58.3917 16.1818 94.6089C21.0153 130.826 58.8773 155.662 100.749 150.081Z" fill="#550238"/>
<path opacity="0.0932" d="M167.363 74.4259C172.175 110.407 142.31 144.067 100.664 149.622C59.0186 155.177 21.4381 130.471 16.6265 94.5721C11.8148 58.5908 41.6801 24.9309 83.3257 19.3762C124.971 13.8214 162.552 38.4446 167.363 74.4259Z" fill="#560338"/>
<path opacity="0.0994" d="M166.949 74.5089C171.76 110.241 142.061 143.653 100.664 149.207C59.2674 154.762 21.9358 130.222 17.1241 94.4893C12.3125 58.7567 42.0119 25.3454 83.4086 19.7907C124.722 14.236 162.137 38.6934 166.949 74.5089Z" fill="#570338"/>
<path opacity="0.1056" d="M166.451 74.5089C171.18 109.993 141.729 143.238 100.581 148.71C59.5164 154.182 22.3506 129.807 17.6219 94.3235C12.8933 58.8396 42.3438 25.5942 83.4916 20.1224C124.556 14.6506 161.722 39.025 166.451 74.5089Z" fill="#580338"/>
<path opacity="0.1118" d="M165.953 74.5918C170.682 109.91 141.397 142.907 100.581 148.378C59.7653 153.85 22.8484 129.642 18.1198 94.3235C13.3911 59.0054 42.6758 26.0087 83.4917 20.5369C124.308 15.148 161.225 39.3566 165.953 74.5918Z" fill="#590338"/>
<path opacity="0.118" d="M165.455 74.6747C170.101 109.744 141.065 142.575 100.498 147.964C59.9313 153.353 23.2632 129.31 18.5345 94.2406C13.8059 59.1712 42.9246 26.3403 83.4917 20.9514C124.142 15.5625 160.81 39.6053 165.455 74.6747Z" fill="#5A0338"/>
<path opacity="0.1242" d="M165.04 74.7576C169.686 109.578 140.816 142.16 100.498 147.549C60.1799 152.938 23.7608 129.061 19.1151 94.2406C14.4694 59.4199 43.3392 26.8378 83.6574 21.4489C123.893 16.06 160.395 39.937 165.04 74.7576Z" fill="#5B0338"/>
<path opacity="0.1304" d="M164.543 74.7576C169.188 109.33 140.401 141.746 100.415 147.052C60.3457 152.358 24.1754 128.647 19.5297 94.0748C14.884 59.5029 43.6709 27.0865 83.6573 21.7805C123.727 16.4745 159.897 40.1857 164.543 74.7576Z" fill="#5C0438"/>
<path opacity="0.1366" d="M164.045 74.8405C168.608 109.247 140.07 141.414 100.332 146.72C60.5119 152.026 24.5905 128.481 19.9447 94.0747C15.382 59.6686 43.92 27.501 83.6575 22.195C123.478 16.889 159.482 40.5173 164.045 74.8405Z" fill="#5D0439"/>
<path opacity="0.1429" d="M163.63 74.9234C168.193 109.081 139.821 141 100.332 146.306C60.7608 151.612 25.0884 128.149 20.5256 93.9918C15.9629 59.8344 44.3348 27.9155 83.8235 22.6095C123.312 17.3864 159.068 40.766 163.63 74.9234Z" fill="#5E0439"/>
<path opacity="0.1491" d="M163.133 75.0063C167.695 108.915 139.489 140.668 100.249 145.891C61.0097 151.114 25.5032 127.9 20.9404 93.9918C16.3777 60.0831 44.5837 28.3301 83.8234 23.107C123.063 17.801 158.57 41.0976 163.133 75.0063Z" fill="#5F0439"/>
<path opacity="0.1553" d="M162.635 75.0063C167.115 108.666 139.157 140.254 100.166 145.394C61.1756 150.534 25.9179 127.486 21.3552 93.826C16.8754 60.1661 44.8326 28.5788 83.8235 23.4386C122.897 18.2984 158.155 41.3463 162.635 75.0063Z" fill="#600439"/>
<path opacity="0.1615" d="M162.22 75.0892C166.7 108.583 138.908 139.839 100.166 145.062C61.4245 150.202 26.4158 127.32 21.936 93.826C17.4562 60.3319 45.2475 29.0762 83.9894 23.8531C122.648 18.7129 157.74 41.678 162.22 75.0892Z" fill="#610539"/>
<path opacity="0.1677" d="M161.722 75.1722C166.119 108.418 138.577 139.507 100.084 144.648C61.5905 149.788 26.8306 126.989 22.3508 93.7432C17.954 60.4978 45.4964 29.4079 83.9895 24.2677C122.483 19.1275 157.242 41.9268 161.722 75.1722Z" fill="#620539"/>
<path opacity="0.1739" d="M161.224 75.255C165.621 108.252 138.245 139.176 100 144.233C61.7562 149.29 27.2451 126.74 22.8483 93.6602C18.4515 60.6635 45.8279 29.7394 84.0722 24.6821C122.233 19.6249 156.827 42.2583 161.224 75.255Z" fill="#630539"/>
<path opacity="0.1801" d="M160.727 75.255C165.124 108.003 137.913 138.678 99.9178 143.736C61.9224 148.793 27.6603 126.325 23.2635 93.5773C18.8667 60.8293 46.0772 30.154 84.0725 25.0967C122.068 20.0394 156.413 42.507 160.727 75.255Z" fill="#640539"/>
<path opacity="0.1863" d="M99.8598 143.418C137.553 138.394 164.59 107.942 160.247 75.4007C155.904 42.8597 121.826 20.5528 84.1329 25.577C46.4393 30.6011 19.4032 61.0536 23.7461 93.5946C28.089 126.136 62.1663 148.442 99.8598 143.418Z" fill="#65053A"/>
<path opacity="0.1925" d="M159.814 75.4208C164.128 107.754 137.249 138.015 99.8344 142.989C62.4198 147.964 28.5724 125.828 24.2585 93.4944C19.9446 61.161 46.8234 30.9002 84.238 25.9258C121.653 20.9514 155.5 43.0874 159.814 75.4208Z" fill="#66053A"/>
<path opacity="0.1988" d="M159.316 75.5037C163.63 107.588 136.917 137.601 99.7515 142.575C62.5857 147.549 28.9872 125.496 24.6733 93.4115C20.3594 61.3268 47.0723 31.3147 84.238 26.3403C121.487 21.3659 155.085 43.419 159.316 75.5037Z" fill="#67063A"/>
<path opacity="0.205" d="M158.901 75.5867C163.132 107.423 136.668 137.269 99.7516 142.16C62.8347 147.052 29.485 125.248 25.1711 93.4115C20.9402 61.5755 47.4043 31.7292 84.3211 26.8378C121.238 21.8634 154.588 43.6677 158.901 75.5867Z" fill="#68063A"/>
<path opacity="0.2112" d="M99.6422 141.79C136.291 136.905 162.579 107.301 158.357 75.6677C154.135 44.0344 121.003 22.3505 84.3539 27.2354C47.7049 32.1203 21.4174 61.7242 25.6392 93.3575C29.8609 124.991 62.9932 146.675 99.6422 141.79Z" fill="#69063A"/>
<path opacity="0.2174" d="M157.906 75.6696C162.137 107.091 136.005 136.44 99.5856 141.331C63.1665 146.223 30.3146 124.667 26.0837 93.2457C21.8528 61.8242 47.9849 32.4754 84.404 27.5839C120.823 22.6925 153.758 44.2481 157.906 75.6696Z" fill="#6A063A"/>
<path opacity="0.2236" d="M157.491 75.7524C161.639 106.925 135.756 136.108 99.5858 140.917C63.4155 145.725 30.8125 124.336 26.5816 93.1628C22.4336 61.99 48.3169 32.807 84.4871 27.9984C120.657 23.1899 153.26 44.5797 157.491 75.7524Z" fill="#6B063A"/>
<path opacity="0.2298" d="M156.994 75.8353C161.142 106.759 135.424 135.777 99.5027 140.585C63.6643 145.394 31.2273 124.17 27.0793 93.1628C22.9313 62.2387 48.6488 33.2215 84.5702 28.4129C120.409 23.6044 152.846 44.8284 156.994 75.8353Z" fill="#6C063A"/>
<path opacity="0.236" d="M156.496 75.8354C160.561 106.594 135.009 135.362 99.4198 140.088C63.8302 144.813 31.642 123.755 27.4941 93.0799C23.3461 62.4046 48.9806 33.5532 84.5701 28.8275C120.243 24.1019 152.431 45.1601 156.496 75.8354Z" fill="#6D073A"/>
<path opacity="0.2422" d="M156.081 75.9183C160.146 106.428 134.76 134.948 99.4198 139.673C64.0791 144.399 32.1398 123.506 27.9918 92.997C23.9268 62.4875 49.3124 33.9677 84.653 29.242C119.994 24.5164 151.933 45.4088 156.081 75.9183Z" fill="#6E073B"/>
<path opacity="0.2484" d="M155.583 76.0012C159.648 106.262 134.429 134.616 99.3369 139.259C64.2451 143.901 32.5546 123.175 28.4896 92.9141C24.4246 62.6533 49.6442 34.2993 84.736 29.6566C119.828 24.9309 151.518 45.7404 155.583 76.0012Z" fill="#6F073B"/>
<path opacity="0.2547" d="M155.086 76.0841C159.068 106.096 134.097 134.284 99.2539 138.927C64.411 143.57 32.9695 123.009 28.9045 92.9141C24.9224 62.902 49.8932 34.7139 84.736 30.0711C119.579 25.4284 151.104 45.9891 155.086 76.0841Z" fill="#70073B"/>
<path opacity="0.2609" d="M154.588 76.0841C158.57 105.93 133.765 133.787 99.171 138.43C64.577 143.072 33.3843 122.594 29.4022 92.7482C25.4202 62.902 50.225 35.0455 84.8191 30.4027C119.413 25.8429 150.606 46.3207 154.588 76.0841Z" fill="#71073B"/>
<path opacity="0.2671" d="M154.173 76.167C158.155 105.765 133.516 133.455 99.1708 138.015C64.8256 142.575 33.8818 122.346 29.8997 92.7483C25.9177 63.1507 50.5566 35.46 84.9017 30.9002C119.164 26.3403 150.191 46.5695 154.173 76.167Z" fill="#72073B"/>
<path opacity="0.2733" d="M153.675 76.2499C157.574 105.599 133.184 133.124 99.0878 137.601C65.0745 142.16 34.2965 122.014 30.3145 92.6654C26.4154 63.3166 50.8054 35.7917 84.9017 31.3147C118.998 26.7549 149.776 46.9011 153.675 76.2499Z" fill="#73083B"/>
<path opacity="0.2795" d="M153.178 76.3328C157.077 105.433 132.853 132.709 99.0052 137.269C65.2408 141.746 34.7118 121.848 30.8127 92.6653C26.9136 63.5652 51.1377 36.2891 84.9851 31.7292C118.749 27.1694 149.279 47.1498 153.178 76.3328Z" fill="#74083B"/>
<path opacity="0.2857" d="M152.763 76.3329C156.662 105.267 132.603 132.295 99.005 136.772C65.4894 141.248 35.2094 121.434 31.3103 92.4996C27.4112 63.5653 51.4694 36.5378 85.0679 32.0609C118.583 27.6669 148.864 47.4815 152.763 76.3329Z" fill="#75083B"/>
<path opacity="0.2919" d="M152.265 76.4157C156.081 105.101 132.189 131.963 98.9221 136.357C65.6554 140.751 35.6241 121.102 31.725 92.4995C27.9089 63.8139 51.8012 36.9523 85.0679 32.5583C118.335 28.0813 148.449 47.7301 152.265 76.4157Z" fill="#76083C"/>
<path opacity="0.2981" d="M151.767 76.4986C155.583 104.935 131.857 131.548 98.9219 135.942C65.9041 140.336 36.1218 120.853 32.3056 92.4166C28.4895 63.9798 52.2158 37.3669 85.1507 32.9728C118.168 28.5788 147.951 48.0618 151.767 76.4986Z" fill="#77083C"/>
<path opacity="0.3043" d="M151.352 76.5815C155.085 104.77 131.608 131.217 98.922 135.611C66.1531 140.005 36.6196 120.605 32.8034 92.4166C28.9873 64.2285 52.5478 37.7814 85.2338 33.3874C117.92 28.9933 147.536 48.3105 151.352 76.5815Z" fill="#78093C"/>
<path opacity="0.3106" d="M150.854 76.5815C154.588 104.604 131.276 130.802 98.839 135.113C66.3189 139.424 37.0343 120.273 33.2182 92.2508C29.485 64.2285 52.7966 38.0301 85.2337 33.719C117.754 29.4078 147.121 48.6421 150.854 76.5815Z" fill="#79093C"/>
<path opacity="0.3168" d="M150.357 76.6645C154.09 104.438 130.944 130.388 98.7561 134.699C66.5679 139.01 37.3663 119.942 33.716 92.1679C29.9829 64.3943 53.1285 38.4447 85.3167 34.1336C117.505 29.9053 146.624 48.8909 150.357 76.6645Z" fill="#7A093C"/>
<path opacity="0.323" d="M149.859 76.7473C153.509 104.272 130.612 130.056 98.6731 134.284C66.7338 138.512 37.781 119.693 34.1308 92.1679C30.4806 64.643 53.3773 38.8591 85.3166 34.6309C117.339 30.3198 146.209 49.2224 149.859 76.7473Z" fill="#7B093C"/>
<path opacity="0.3292" d="M149.444 76.8302C153.094 104.106 130.364 129.724 98.6731 133.953C66.9826 138.181 38.2787 119.444 34.7114 92.1678C31.0612 64.8917 53.7922 39.2737 85.4826 35.0454C117.09 30.8172 145.794 49.4711 149.444 76.8302Z" fill="#7C093C"/>
<path opacity="0.3354" d="M148.946 76.8303C152.596 103.941 130.032 129.227 98.5899 133.455C67.1484 137.683 38.6934 119.112 35.1261 92.0021C31.4759 64.8918 54.0409 39.6053 85.4825 35.3771C116.924 31.2318 145.296 49.8028 148.946 76.8303Z" fill="#7D093C"/>
<path opacity="0.3416" d="M148.449 76.9132C152.016 103.775 129.7 128.895 98.5073 133.041C67.3146 137.186 39.1085 118.781 35.5412 91.9192C31.974 65.0576 54.2901 39.937 85.4828 35.7917C116.675 31.6463 144.882 50.0515 148.449 76.9132Z" fill="#7E0A3C"/>
<path opacity="0.3478" d="M148.034 76.996C151.601 103.609 129.368 128.564 98.5074 132.709C67.5635 136.854 39.6062 118.615 36.1219 92.002C32.5547 65.3891 54.7878 40.4344 85.6486 36.289C116.509 32.1437 144.467 50.3831 148.034 76.996Z" fill="#7F0A3D"/>
<path opacity="0.354" d="M147.536 77.079C151.021 103.443 129.036 128.149 98.4244 132.295C67.7295 136.357 40.0211 118.283 36.5368 91.9192C33.0525 65.555 55.0367 40.8489 85.6486 36.7036C116.261 32.5583 143.969 50.6319 147.536 77.079Z" fill="#800A3D"/>
<path opacity="0.3602" d="M147.038 77.1619C150.523 103.36 128.704 127.818 98.3413 131.88C67.9782 135.942 40.4357 118.035 36.9515 91.8363C33.4672 65.6379 55.2854 41.1806 85.6485 37.1182C116.095 33.0558 143.554 50.9635 147.038 77.1619Z" fill="#810A3D"/>
<path opacity="0.3665" d="M146.624 77.1619C150.108 103.112 128.455 127.403 98.3412 131.383C68.227 135.362 40.9335 117.62 37.5322 91.6705C34.0479 65.7208 55.7002 41.4293 85.8144 37.4498C115.929 33.4703 143.139 51.2122 146.624 77.1619Z" fill="#820A3D"/>
<path opacity="0.3727" d="M98.2145 131.082C128.097 127.099 149.537 103.009 146.103 77.2759C142.669 51.5427 115.66 33.9106 85.7777 37.8936C55.8953 41.8765 34.4549 65.9663 37.8892 91.6996C41.3236 117.433 68.3321 135.065 98.2145 131.082Z" fill="#830A3D"/>
<path opacity="0.3789" d="M145.628 77.3277C149.03 102.78 127.792 126.657 98.1756 130.636C68.5591 134.616 41.7632 117.123 38.3619 91.6705C34.9605 66.2183 56.1981 42.3413 85.8146 38.3618C115.514 34.3822 142.227 51.7926 145.628 77.3277Z" fill="#840B3D"/>
<path opacity="0.3851" d="M145.13 77.4107C148.532 102.697 127.46 126.325 98.0925 130.222C68.725 134.119 42.178 116.791 38.8596 91.5877C35.4583 66.3012 56.5299 42.6729 85.8975 38.7763C115.265 34.7968 141.812 52.1243 145.13 77.4107Z" fill="#850B3D"/>
<path opacity="0.3913" d="M144.715 77.4106C148.034 102.448 127.211 125.911 98.0923 129.724C68.9735 133.621 42.6754 116.459 39.3571 91.4218C36.0387 66.3841 56.8616 42.9216 85.9803 39.1079C115.099 35.2942 141.397 52.3729 144.715 77.4106Z" fill="#860B3D"/>
<path opacity="0.3975" d="M144.218 77.4935C147.536 102.282 126.879 125.496 98.0095 129.393C69.2227 133.207 43.0905 116.211 39.8551 91.4217C36.5368 66.6328 57.1935 43.419 86.0634 39.5224C114.85 35.7087 140.899 52.7045 144.218 77.4935Z" fill="#870B3E"/>
<path opacity="0.4037" d="M143.72 77.5764C147.038 102.117 126.464 125.165 97.9264 128.978C69.3884 132.792 43.505 115.962 40.2696 91.3389C37.0342 66.7157 57.5252 43.7507 86.0632 39.937C114.684 36.1233 140.484 52.9533 143.72 77.5764Z" fill="#880B3E"/>
<path opacity="0.4099" d="M143.305 77.6593C146.541 102.034 126.216 124.833 97.9264 128.564C69.6373 132.377 44.0029 115.63 40.7675 91.3388C37.5321 66.9644 57.857 44.1651 86.1461 40.4344C114.435 36.6207 140.07 53.2848 143.305 77.6593Z" fill="#890B3E"/>
<path opacity="0.4161" d="M142.807 77.6593C146.043 101.785 125.884 124.335 97.8435 128.066C69.8033 131.797 44.4178 115.299 41.2653 91.173C38.0299 67.0473 58.189 44.4968 86.2293 40.766C114.269 37.0352 139.572 53.5335 142.807 77.6593Z" fill="#8A0C3E"/>
<path opacity="0.4224" d="M142.31 77.7422C145.462 101.619 125.552 124.004 97.7604 127.735C69.9691 131.465 44.8325 115.05 41.68 91.173C38.5276 67.296 58.4377 44.9113 86.2291 41.1805C114.02 37.5326 139.157 53.8652 142.31 77.7422Z" fill="#8B0C3E"/>
<path opacity="0.4286" d="M141.895 77.8251C145.047 101.453 125.303 123.672 97.7605 127.32C70.2181 130.968 45.3303 114.801 42.1779 91.0901C39.0254 67.4619 58.7696 45.243 86.3121 41.5951C113.855 37.9472 138.742 54.114 141.895 77.8251Z" fill="#8C0C3E"/>
<path opacity="0.4348" d="M141.397 77.908C144.55 101.37 124.971 123.258 97.6778 126.906C70.3842 130.553 45.7453 114.47 42.6758 91.0901C39.5233 67.6276 59.1017 45.7404 86.3953 42.0925C113.606 38.3617 138.245 54.4455 141.397 77.908Z" fill="#8D0C3E"/>
<path opacity="0.441" d="M140.899 77.9081C143.969 101.122 124.639 122.843 97.5946 126.408C70.6328 129.973 46.1599 114.138 43.0904 90.9244C40.0209 67.7106 59.3504 45.9892 86.3951 42.4242C113.44 38.8592 137.83 54.6943 140.899 77.9081Z" fill="#8E0C3E"/>
<path opacity="0.4472" d="M140.485 77.991C143.554 100.956 124.39 122.512 97.5946 126.077C70.8817 129.642 46.6576 113.889 43.5882 90.9244C40.5187 67.9593 59.6822 46.4037 86.4781 42.8387C113.191 39.2737 137.415 55.0259 140.485 77.991Z" fill="#8F0D3E"/>
<path opacity="0.4534" d="M139.987 78.0738C143.056 100.79 124.059 122.097 97.5117 125.662C71.0477 129.227 47.0724 113.641 44.0859 90.8414C41.0164 68.1251 60.014 46.8182 86.561 43.2532C113.025 39.7711 136.917 55.2746 139.987 78.0738Z" fill="#900D3F"/>
<path opacity="0.4596" d="M139.489 78.1567C142.476 100.707 123.644 121.765 97.4287 125.247C71.2136 128.73 47.4873 113.309 44.5008 90.7585C41.5143 68.208 60.3459 47.1498 86.5611 43.6677C112.776 40.1856 136.503 55.6062 139.489 78.1567Z" fill="#910D3F"/>
<path opacity="0.4658" d="M138.991 78.1568C141.978 100.459 123.312 121.351 97.3457 124.833C71.3795 128.315 47.9021 113.06 44.9155 90.7585C41.929 68.4568 60.5948 47.5644 86.561 44.0823C112.61 40.6003 136.088 55.9379 138.991 78.1568Z" fill="#920D3F"/>
<path opacity="0.4721" d="M97.3247 124.406C123.029 120.98 141.48 100.321 138.536 78.2644C135.593 56.2073 112.369 41.1039 86.6646 44.53C60.9603 47.9561 42.5092 68.6143 45.4529 90.6713C48.3966 112.728 71.6204 127.832 97.3247 124.406Z" fill="#930D3F"/>
<path opacity="0.4783" d="M138.079 78.3225C140.982 100.127 122.731 120.605 97.2629 124.004C71.7944 127.403 48.8147 112.397 45.9111 90.5927C43.0075 68.7883 61.2585 48.3105 86.727 44.9113C112.196 41.5121 135.175 56.5182 138.079 78.3225Z" fill="#940D3F"/>
<path opacity="0.4845" d="M137.581 78.4055C140.485 100.044 122.4 120.273 97.263 123.589C72.1263 126.906 49.3124 112.148 46.4918 90.5098C43.5883 68.8712 61.6734 48.6421 86.81 45.3259C111.947 42.0096 134.761 56.7669 137.581 78.4055Z" fill="#950E3F"/>
<path opacity="0.4907" d="M97.1593 123.158C122.092 119.835 139.99 99.8121 137.138 78.4358C134.285 57.0595 111.76 42.4245 86.8282 45.7477C61.8959 49.0709 43.997 69.0938 46.8499 90.4701C49.7027 111.846 72.227 126.481 97.1593 123.158Z" fill="#960E3F"/>
<path opacity="0.4969" d="M136.669 78.4884C139.489 99.6295 121.819 119.444 97.1799 122.76C72.541 126.077 50.225 111.568 47.4043 90.4269C44.5837 69.2858 62.2541 49.4712 86.893 46.1549C111.532 42.8387 133.848 57.3473 136.669 78.4884Z" fill="#970E3F"/>
<path opacity="0.5031" d="M136.171 78.5713C138.992 99.4637 121.487 119.112 97.097 122.346C72.707 125.579 50.6399 111.236 47.9022 90.344C45.0816 69.4516 62.586 49.8028 86.976 46.5695C111.366 43.3361 133.433 57.6789 136.171 78.5713Z" fill="#980E40"/>
<path opacity="0.5093" d="M135.756 78.6542C138.494 99.3807 121.238 118.781 97.0971 121.931C72.9559 125.165 51.1377 110.988 48.4 90.261C45.6624 69.5345 62.9178 50.1344 87.059 46.984C111.117 43.7506 132.936 57.9276 135.756 78.6542Z" fill="#990E40"/>
<path opacity="0.5155" d="M135.258 78.7371C137.996 99.2149 120.823 118.366 97.0139 121.6C73.1216 124.75 51.5521 110.739 48.8144 90.261C46.0768 69.7832 63.2494 50.6318 87.0587 47.3985C110.951 44.248 132.52 58.2592 135.258 78.7371Z" fill="#9A0E40"/>
<path opacity="0.5217" d="M134.76 78.7371C137.498 98.9662 120.491 117.952 96.931 121.102C73.3706 124.253 51.9672 110.407 49.3125 90.1782C46.5748 69.949 63.5815 50.9635 87.1419 47.8131C110.702 44.6626 132.106 58.508 134.76 78.7371Z" fill="#9B0F40"/>
<path opacity="0.5279" d="M134.263 78.82C136.917 98.8004 120.16 117.62 96.8481 120.688C73.5365 123.838 52.3819 110.076 49.7272 90.0953C47.0725 70.1148 63.8303 51.2951 87.1419 48.2276C110.536 45.0772 131.608 58.8396 134.263 78.82Z" fill="#9C0F40"/>
<path opacity="0.5342" d="M133.848 78.9029C136.502 98.7175 119.911 117.206 96.8479 120.273C73.7853 123.341 52.8796 109.827 50.2249 90.0123C47.5702 70.1977 64.1619 51.7096 87.2246 48.6421C110.37 45.5746 131.193 59.0883 133.848 78.9029Z" fill="#9D0F40"/>
<path opacity="0.5404" d="M133.35 78.9858C135.922 98.5517 119.579 116.874 96.7649 119.942C73.9512 123.009 53.2943 109.578 50.7225 90.0124C48.1508 70.4465 64.4938 52.1242 87.3076 49.0567C110.121 45.9891 130.778 59.4199 133.35 78.9858Z" fill="#9E0F40"/>
<path opacity="0.5466" d="M132.852 78.9858C135.424 98.3029 119.247 116.459 96.6821 119.444C74.1171 122.429 53.7092 109.247 51.1375 89.8465C48.5658 70.5293 64.7428 52.3728 87.3077 49.3882C109.956 46.4036 130.281 59.6686 132.852 78.9858Z" fill="#9F0F40"/>
<path opacity="0.5528" d="M132.437 79.0688C135.009 98.1372 118.998 116.045 96.682 119.03C74.366 122.014 54.2069 108.915 51.7181 89.8466C49.1464 70.7781 65.1575 52.8704 87.4735 49.8858C109.707 46.9011 129.866 60.0003 132.437 79.0688Z" fill="#A00F41"/>
<path opacity="0.559" d="M131.94 79.1516C134.428 98.0542 118.666 115.713 96.5991 118.615C74.5319 121.517 54.6217 108.666 52.1329 89.7636C49.6442 70.861 65.4064 53.202 87.4735 50.3002C109.541 47.3156 129.451 60.249 131.94 79.1516Z" fill="#A11041"/>
<path opacity="0.5652" d="M131.442 79.2345C133.931 97.8884 118.334 115.382 96.5161 118.283C74.6978 121.185 55.0366 108.418 52.5478 89.7636C50.059 71.1097 65.7382 53.6165 87.4736 50.7148C109.292 47.813 128.953 60.5806 131.442 79.2345Z" fill="#A21041"/>
<path opacity="0.5714" d="M131.027 79.2345C133.516 97.6397 118.003 114.884 96.5162 117.786C75.0297 120.688 55.5343 108.086 53.1285 89.5978C50.6397 71.1926 66.1531 53.9481 87.6396 51.0464C109.126 48.2276 128.538 60.8293 131.027 79.2345Z" fill="#A31041"/>
<path opacity="0.5776" d="M130.529 79.3174C132.935 97.4739 117.671 114.553 96.4332 117.371C75.1956 120.19 55.9491 107.754 53.5433 89.5978C51.1375 71.4413 66.402 54.3626 87.6395 51.5438C108.877 48.6421 128.124 61.1609 130.529 79.3174Z" fill="#A41041"/>
<path opacity="0.5839" d="M130.032 79.4003C132.438 97.391 117.339 114.221 96.3503 117.04C75.3616 119.859 56.364 107.506 53.9581 89.5978C51.5523 71.6071 66.6509 54.7772 87.6396 51.9583C108.711 49.1395 127.626 61.4097 130.032 79.4003Z" fill="#A51041"/>
<path opacity="0.5901" d="M129.534 79.4832C131.94 97.2252 117.007 113.806 96.2674 116.625C75.5276 119.361 56.7789 107.257 54.456 89.5149C52.1332 71.773 66.9828 55.1917 87.7227 52.3729C108.462 49.5541 127.211 61.7413 129.534 79.4832Z" fill="#A61141"/>
<path opacity="0.5963" d="M129.119 79.4833C131.442 96.9765 116.758 113.392 96.2674 116.128C75.7764 118.864 57.2765 106.842 54.9537 89.3491C52.6308 71.8559 67.3147 55.4404 87.8056 52.7045C108.297 50.0515 126.796 61.99 129.119 79.4833Z" fill="#A71141"/>
<path opacity="0.6025" d="M128.621 79.5662C130.944 96.8107 116.426 113.06 96.1843 115.713C75.9423 118.366 57.6912 106.594 55.3684 89.2662C53.0455 72.0217 67.5634 55.7721 87.8055 53.1191C108.048 50.4661 126.299 62.3216 128.621 79.5662Z" fill="#A81141"/>
<path opacity="0.6087" d="M128.124 79.6491C130.364 96.7278 116.095 112.646 96.1015 115.382C76.1084 118.035 58.1061 106.345 55.8662 89.3491C53.6263 72.3533 67.8953 56.3524 87.8885 53.6165C107.882 50.8806 125.884 62.5704 128.124 79.6491Z" fill="#A91142"/>
<path opacity="0.6149" d="M127.709 79.732C129.949 96.562 115.846 112.314 96.1015 114.967C76.4401 117.62 58.6038 106.096 56.3639 89.2662C54.124 72.4362 68.2271 56.684 87.9714 54.031C107.633 51.378 125.469 62.902 127.709 79.732Z" fill="#AA1142"/>
<path opacity="0.6211" d="M127.211 79.732C129.451 96.3132 115.431 111.9 96.0185 114.47C76.606 117.04 59.0186 105.682 56.8617 89.1004C54.6218 72.5191 68.642 56.9327 88.0545 54.3627C107.467 51.7926 124.971 63.1507 127.211 79.732Z" fill="#AB1142"/>
<path opacity="0.6273" d="M126.713 79.8149C128.87 96.1474 115.099 111.568 95.9354 114.055C76.7718 116.625 59.4333 105.433 57.2763 89.0175C55.1194 72.6849 68.8907 57.2644 88.0543 54.7772C107.218 52.29 124.556 63.4823 126.713 79.8149Z" fill="#AC1242"/>
<path opacity="0.6335" d="M126.299 79.8978C128.456 96.0645 114.85 111.153 95.9355 113.724C77.0208 116.211 59.9311 105.184 57.7742 89.0175C55.6172 72.8507 69.2226 57.7618 88.1373 55.1917C107.052 52.7045 124.142 63.731 126.299 79.8978Z" fill="#AD1242"/>
<path opacity="0.6398" d="M125.801 79.9807C127.958 95.8987 114.518 110.822 95.8526 113.309C77.1868 115.796 60.3461 104.935 58.2721 89.0175C56.1152 73.0995 69.5544 58.1764 88.2203 55.6892C106.803 53.1191 123.644 64.0627 125.801 79.9807Z" fill="#AE1242"/>
<path opacity="0.646" d="M125.303 79.9807C127.377 95.65 114.187 110.407 95.7695 112.812C77.3526 115.299 60.7607 104.521 58.6867 88.8516C56.6128 73.1824 69.8033 58.425 88.2202 56.0207C106.637 53.6165 123.229 64.3114 125.303 79.9807Z" fill="#AF1242"/>
<path opacity="0.6522" d="M124.888 80.0636C126.962 95.4841 113.937 109.993 95.7694 112.397C77.6842 114.801 61.2583 104.272 59.1843 88.7687C57.1103 73.3482 70.135 58.8396 88.3031 56.4353C106.388 54.031 122.814 64.643 124.888 80.0636Z" fill="#B01242"/>
<path opacity="0.6584" d="M95.6788 112.056C113.526 109.677 126.345 95.3866 124.31 80.1373C122.275 64.888 106.157 54.4544 88.3088 56.8333C70.4611 59.2122 57.6426 73.5027 59.6778 88.752C61.7129 104.001 77.8311 114.435 95.6788 112.056Z" fill="#B11243"/>
<path opacity="0.6646" d="M123.893 80.2294C125.884 95.2354 113.274 109.329 95.6037 111.651C78.0163 113.972 62.088 103.775 60.097 88.7687C58.106 73.7627 70.7158 59.6686 88.3862 57.3472C105.974 54.943 121.902 65.2233 123.893 80.2294Z" fill="#B21343"/>
<path opacity="0.6708" d="M123.395 80.3123C125.386 95.0696 112.942 108.915 95.6035 111.236C78.265 113.558 62.5857 103.443 60.5947 88.6859C58.6037 73.9285 71.0475 60.0832 88.386 57.7618C105.807 55.3575 121.487 65.4721 123.395 80.3123Z" fill="#B31343"/>
<path opacity="0.677" d="M122.98 80.3124C124.888 94.821 112.61 108.5 95.6038 110.739C78.5142 112.977 63.0837 103.029 61.1756 88.5201C59.2675 74.0115 71.5455 60.3319 88.5522 58.0935C105.559 55.855 120.989 65.8038 122.98 80.3124Z" fill="#B41343"/>
<path opacity="0.6832" d="M122.482 80.3952C124.39 94.738 112.278 108.169 95.5205 110.407C78.6798 112.646 63.4983 102.863 61.5902 88.5201C59.6821 74.1773 71.7942 60.7465 88.552 58.508C105.393 56.2695 120.574 66.0525 122.482 80.3952Z" fill="#B51343"/>
<path opacity="0.6894" d="M121.985 80.4781C123.893 94.5722 111.947 107.754 95.4378 109.993C78.8459 112.231 63.9132 102.531 62.0881 88.4371C60.1801 74.3431 72.1262 61.161 88.6351 58.9225C105.144 56.7669 120.16 66.3841 121.985 80.4781Z" fill="#B61343"/>
<path opacity="0.6957" d="M121.57 80.561C123.395 94.4064 111.698 107.423 95.4379 109.578C79.1779 111.734 64.4111 102.282 62.586 88.4371C60.7609 74.5918 72.4582 61.5755 88.7183 59.4199C104.978 57.1815 119.662 66.6328 121.57 80.561Z" fill="#B71343"/>
<path opacity="0.7019" d="M121.072 80.561C122.897 94.1577 111.366 107.008 95.3547 109.164C79.3436 111.319 64.8257 101.951 63.0006 88.3542C61.1755 74.7576 72.7069 61.9071 88.7181 59.7516C104.729 57.596 119.247 66.9644 121.072 80.561Z" fill="#B81443"/>
<path opacity="0.7081" d="M120.574 80.644C122.4 94.0748 111.034 106.594 95.2718 108.749C79.5096 110.822 65.2406 101.702 63.4984 88.2713C61.6733 74.8405 73.0388 62.3217 88.801 60.1661C104.563 58.0935 118.832 67.2131 120.574 80.644Z" fill="#B91443"/>
<path opacity="0.7143" d="M120.16 80.7268C121.902 93.9089 110.785 106.262 95.2721 108.335C79.7587 110.407 65.7385 101.371 63.9964 88.1884C62.2543 75.0063 73.3708 62.6533 88.8842 60.5806C104.398 58.508 118.335 67.5447 120.16 80.7268Z" fill="#BA1444"/>
<path opacity="0.7205" d="M95.1247 107.955C110.384 105.922 121.354 93.7871 119.628 80.8524C117.902 67.9177 104.132 59.0808 88.8733 61.1147C73.6143 63.1485 62.6437 75.2829 64.37 88.2176C66.0962 101.152 79.8656 109.989 95.1247 107.955Z" fill="#BB1444"/>
<path opacity="0.7267" d="M119.164 80.8098C120.823 93.4944 110.121 105.433 95.1058 107.506C80.0901 109.495 66.5678 100.79 64.9086 88.1055C63.2494 75.4209 73.9512 63.4824 88.9669 61.4097C103.982 59.4199 117.505 68.1251 119.164 80.8098Z" fill="#BC1444"/>
<path opacity="0.7329" d="M118.666 80.8927C120.325 93.4115 109.707 105.101 95.0228 107.091C80.2561 109.081 66.9826 100.541 65.3234 88.0226C63.6642 75.5038 74.2831 63.814 88.9668 61.8243C103.734 59.8345 117.007 68.3739 118.666 80.8927Z" fill="#BD1544"/>
<path opacity="0.7391" d="M118.252 80.9755C119.911 93.2456 109.458 104.77 95.023 106.676C80.5881 108.583 67.4805 100.21 65.8213 87.9396C64.1621 75.6695 74.615 64.1455 89.0499 62.2387C103.568 60.3319 116.592 68.7054 118.252 80.9755Z" fill="#BE1544"/>
<path opacity="0.7453" d="M117.754 81.0585C119.33 93.0799 109.126 104.355 94.94 106.262C80.754 108.169 67.8952 99.9611 66.3189 87.8568C64.7427 75.8354 74.9467 64.4772 89.1327 62.6533C103.319 60.7464 116.178 68.9542 117.754 81.0585Z" fill="#BF1544"/>
<path opacity="0.7516" d="M117.256 81.0585C118.832 92.8312 108.794 103.941 94.8567 105.847C80.9196 107.671 68.3098 99.6295 66.7336 87.8568C65.1573 76.0841 75.1954 64.9746 89.1325 63.0678C103.153 61.2439 115.679 69.2858 117.256 81.0585Z" fill="#C01544"/>
<path opacity="0.7578" d="M116.841 81.1414C118.417 92.7483 108.545 103.609 94.8569 105.433C81.1686 107.257 68.8077 99.3808 67.2314 87.7739C65.6552 76.167 75.5274 65.3063 89.2157 63.4824C102.904 61.6584 115.265 69.5345 116.841 81.1414Z" fill="#C11544"/>
<path opacity="0.764" d="M116.343 81.2243C117.837 92.5825 108.213 103.277 94.774 105.018C81.3346 106.842 69.2226 99.0492 67.7293 87.691C66.2361 76.3328 75.8593 65.6379 89.2987 63.8969C102.738 62.073 114.85 69.8662 116.343 81.2243Z" fill="#C21545"/>
<path opacity="0.7702" d="M115.846 81.3072C117.339 92.4166 107.882 102.863 94.691 104.604C81.5005 106.345 69.6372 98.8004 68.1439 87.6081C66.6507 76.4986 76.1081 66.0524 89.2986 64.3114C102.489 62.5704 114.352 70.1148 115.846 81.3072Z" fill="#C31645"/>
<path opacity="0.7764" d="M115.431 81.3072C116.924 92.1679 107.633 102.448 94.6913 104.189C81.7496 105.93 70.1353 98.4688 68.725 87.5252C67.2317 76.5816 76.5231 66.3841 89.4648 64.643C102.323 62.9849 113.938 70.4465 115.431 81.3072Z" fill="#C41645"/>
<path opacity="0.7826" d="M114.933 81.3901C116.343 92.085 107.301 102.117 94.6081 103.775C81.9982 105.433 70.5499 98.1371 69.1396 87.5251C67.7293 76.8302 76.7718 66.7986 89.4646 65.1404C102.074 63.4823 113.523 70.6952 114.933 81.3901Z" fill="#C51645"/>
<path opacity="0.7888" d="M114.435 81.473C115.846 91.9192 106.886 101.702 94.5253 103.36C82.1643 105.018 70.9648 97.8884 69.5544 87.4422C68.1441 76.996 77.1038 67.2131 89.4647 65.555C101.909 63.8968 113.025 71.0268 114.435 81.473Z" fill="#C61645"/>
<path opacity="0.795" d="M113.938 81.5559C115.265 91.7534 106.554 101.37 94.4421 102.946C82.3301 104.521 71.3796 97.5568 70.0522 87.3593C68.7249 77.1619 77.4355 67.5447 89.5476 65.9695C101.66 64.3114 112.61 71.2755 113.938 81.5559Z" fill="#C71645"/>
<path opacity="0.8012" d="M113.523 81.5559C114.85 91.5046 106.305 100.956 94.4422 102.531C82.579 104.106 71.8773 97.3081 70.55 87.2764C69.2226 77.2447 77.7675 67.8763 89.6306 66.3011C101.494 64.8088 112.195 71.6071 113.523 81.5559Z" fill="#C81645"/>
<path opacity="0.8075" d="M113.025 81.6388C114.352 91.4217 105.973 100.541 94.3592 102.117C82.7449 103.692 72.2921 96.9765 70.9647 87.2764C69.6374 77.4935 78.0163 68.3738 89.6306 66.7986C101.245 65.2234 111.698 71.8559 113.025 81.6388Z" fill="#C91745"/>
<path opacity="0.8137" d="M112.528 81.7217C113.772 91.2559 105.642 100.21 94.2765 101.702C82.9111 103.194 72.7071 96.7278 71.4627 87.1935C70.2183 77.6593 78.3483 68.7054 89.7137 67.2131C101.079 65.7208 111.283 72.1875 112.528 81.7217Z" fill="#CA1745"/>
<path opacity="0.8199" d="M112.112 81.8046C113.357 91.0901 105.393 99.8782 94.2763 101.371C83.1598 102.863 73.2046 96.479 71.9602 87.1935C70.7158 77.908 78.6799 69.12 89.7964 67.6277C100.83 66.1353 110.868 72.5191 112.112 81.8046Z" fill="#CB1746"/>
<path opacity="0.8261" d="M111.615 81.8875C112.859 91.0072 105.061 99.4636 94.1932 100.956C83.4085 102.365 73.6194 96.2303 72.375 87.1106C71.1306 77.9909 78.9287 69.5345 89.7964 68.0421C100.664 66.5498 110.37 72.7678 111.615 81.8875Z" fill="#CC1746"/>
<path opacity="0.8323" d="M111.117 81.8876C112.279 90.7585 104.729 99.0492 94.1106 100.459C83.5748 101.868 74.0345 95.8158 72.8731 86.9448C71.7117 78.0739 79.261 69.7833 89.8798 68.3738C100.416 67.0473 109.956 73.0995 111.117 81.8876Z" fill="#CD1746"/>
<path opacity="0.8385" d="M110.702 81.9704C111.864 90.5927 104.48 98.7175 94.1104 100.044C83.8235 101.453 74.5321 95.567 73.3706 86.9448C72.2092 78.3225 79.5926 70.1977 89.9625 68.8712C100.249 67.4618 109.541 73.3482 110.702 81.9704Z" fill="#CE1746"/>
<path opacity="0.8447" d="M110.204 82.0533C111.366 90.4269 104.065 98.303 94.0273 99.7124C83.9893 101.039 74.9467 95.3183 73.8682 86.9448C72.7897 78.5713 80.0071 70.6952 90.0452 69.2858C100 67.9593 109.043 73.6798 110.204 82.0533Z" fill="#CF1846"/>
<path opacity="0.8509" d="M109.707 82.1363C110.785 90.344 103.734 97.9714 93.9445 99.2979C84.1553 100.624 75.3617 95.0697 74.2832 86.862C73.2047 78.6542 80.2562 71.0269 90.0454 69.7004C99.8346 68.3739 108.628 73.9286 109.707 82.1363Z" fill="#D01846"/>
<path opacity="0.8571" d="M109.209 82.1362C110.287 90.0952 103.402 97.5568 93.9442 98.8004C84.4039 100.044 75.8591 94.6551 74.7806 86.6961C73.7021 78.7371 80.5877 71.2755 90.0451 70.0319C99.5854 68.7883 108.213 74.2601 109.209 82.1362Z" fill="#D11846"/>
<path opacity="0.8634" d="M108.795 82.2192C109.79 89.9295 103.153 97.1423 93.9447 98.3859C84.6533 99.6295 76.3574 94.4064 75.3619 86.6961C74.3664 78.9858 81.0031 71.773 90.2116 70.5294C99.4201 69.2858 107.716 74.5089 108.795 82.2192Z" fill="#D21846"/>
<path opacity="0.8696" d="M108.297 82.302C109.292 89.7636 102.821 96.8106 93.8616 98.0542C84.902 99.2149 76.7719 94.1576 75.7764 86.6961C74.7809 79.2345 81.2518 72.1875 90.2114 70.9439C99.171 69.7003 107.301 74.8405 108.297 82.302Z" fill="#D31847"/>
<path opacity="0.8758" d="M107.798 82.385C108.794 89.6807 102.489 96.4791 93.7785 97.6397C85.0678 98.8004 77.1865 93.8261 76.191 86.6132C75.1955 79.3175 81.5005 72.5191 90.2112 71.3585C99.0049 70.1978 106.886 75.0892 107.798 82.385Z" fill="#D41947"/>
<path opacity="0.882" d="M107.384 82.3849C108.296 89.432 102.24 96.0645 93.7786 97.1423C85.3167 98.303 77.6845 93.4944 76.7719 86.4473C75.8594 79.4003 81.9154 72.7678 90.3772 71.69C98.7561 70.6123 106.388 75.4208 107.384 82.3849Z" fill="#D51947"/>
<path opacity="0.8882" d="M106.886 82.4679C107.799 89.2662 101.909 95.65 93.6958 96.7278C85.4828 97.8056 78.0995 93.1628 77.187 86.3645C76.2744 79.5662 82.1645 73.1824 90.3775 72.1046C98.5904 71.0268 105.974 75.6696 106.886 82.4679Z" fill="#D61947"/>
<path opacity="0.8944" d="M106.388 82.5508C107.301 89.1004 101.577 95.3183 93.6126 96.3961C85.6486 97.4739 78.514 92.997 77.6014 86.4474C76.6889 79.8978 82.4132 73.6798 90.3772 72.602C98.4243 71.5242 105.559 76.0012 106.388 82.5508Z" fill="#D71947"/>
<path opacity="0.9006" d="M105.973 82.6337C106.803 89.0174 101.245 94.9867 93.6125 95.9816C85.8972 96.9764 79.0116 92.6653 78.182 86.3644C77.3524 79.9806 82.9108 74.0114 90.543 73.0165C98.1753 71.9387 105.061 76.2499 105.973 82.6337Z" fill="#D81947"/>
<path opacity="0.9068" d="M105.476 82.6337C106.305 88.7687 100.913 94.4893 93.5297 95.4842C86.1464 96.479 79.4266 92.3337 78.597 86.1987C77.7675 80.0636 83.1598 74.3431 90.5432 73.3482C98.0095 72.3533 104.646 76.5815 105.476 82.6337Z" fill="#D91947"/>
<path opacity="0.913" d="M104.978 82.7166C105.724 88.603 100.581 94.1577 93.4465 95.0697C86.312 96.0645 79.8412 92.0021 79.0945 86.1158C78.3479 80.2294 83.4914 74.6747 90.6259 73.7628C97.7604 72.8508 104.231 76.8303 104.978 82.7166Z" fill="#DA1A47"/>
<path opacity="0.9193" d="M104.563 82.7995C105.31 88.4372 100.332 93.8261 93.4466 94.738C86.5609 95.65 80.339 91.8363 79.5924 86.1158C78.8458 80.4782 83.8233 75.0893 90.7089 74.1773C97.5945 73.2653 103.733 77.1619 104.563 82.7995Z" fill="#DB1A47"/>
<path opacity="0.9255" d="M104.066 82.8825C104.812 88.3543 100.001 93.4116 93.3639 94.3235C86.7271 95.2355 80.7541 91.5047 80.0074 86.1158C79.2608 80.644 84.0724 75.5867 90.7091 74.6747C97.3459 73.7628 103.319 77.4107 104.066 82.8825Z" fill="#DC1A48"/>
<path opacity="0.9317" d="M103.568 82.8824C104.232 88.1055 99.6688 92.997 93.281 93.826C86.8931 94.6551 81.169 91.173 80.5053 85.9499C79.8416 80.7268 84.4044 75.8354 90.7923 75.0063C97.1802 74.1772 102.904 77.7422 103.568 82.8824Z" fill="#DD1A48"/>
<path opacity="0.9379" d="M103.07 82.9653C103.734 87.9396 99.337 92.6653 93.198 93.4944C87.059 94.3234 81.5837 90.9243 80.9201 85.9499C80.2564 80.9755 84.6533 76.2499 90.7922 75.4208C96.9312 74.5917 102.407 77.9909 103.07 82.9653Z" fill="#DE1A48"/>
<path opacity="0.9441" d="M102.655 83.0483C103.319 87.7739 99.0879 92.2509 93.1978 93.0799C87.3077 93.8261 82.0812 90.6756 81.4176 85.8671C80.7539 81.0585 84.9848 76.6645 90.8749 75.8354C96.765 75.0064 101.991 78.3226 102.655 83.0483Z" fill="#DF1A48"/>
<path opacity="0.9503" d="M102.157 83.1312C102.738 87.691 98.6732 91.9192 93.1149 92.6654C87.5566 93.4115 82.4961 90.344 81.9153 85.8671C81.3346 81.3072 85.3996 77.079 90.9579 76.3329C96.5161 75.5038 101.577 78.5713 102.157 83.1312Z" fill="#E01B48"/>
<path opacity="0.9565" d="M101.66 83.1311C102.24 87.4422 98.3412 91.5046 93.0318 92.1679C87.7224 92.9141 82.9108 90.0123 82.3301 85.7012C81.7494 81.3901 85.6484 77.3277 90.9578 76.6644C96.3502 76.0012 101.079 78.9029 101.66 83.1311Z" fill="#E11B48"/>
<path opacity="0.9627" d="M101.245 83.214C101.826 87.2765 98.0925 91.0901 93.032 91.8363C87.9715 92.4995 83.4088 89.7636 82.8281 85.7012C82.2474 81.6388 85.9806 77.8251 91.0411 77.079C96.1016 76.4157 100.664 79.1516 101.245 83.214Z" fill="#E21B48"/>
<path opacity="0.9689" d="M100.747 83.2969C101.245 87.1106 97.7606 90.7585 92.949 91.4217C88.1374 92.085 83.8234 89.432 83.3257 85.6183C82.8279 81.8046 86.3122 78.1567 91.1239 77.4935C95.9355 76.8302 100.249 79.4833 100.747 83.2969Z" fill="#E31B48"/>
<path opacity="0.9752" d="M100.249 83.3799C100.747 87.0278 97.4288 90.4269 92.866 91.0073C88.3033 91.5876 84.2382 89.1833 83.7404 85.5355C83.2427 81.8876 86.5611 78.4884 91.1238 77.9081C95.6866 77.3277 99.7516 79.732 100.249 83.3799Z" fill="#E41B49"/>
<path opacity="0.9814" d="M99.8345 83.4627C100.249 86.8619 97.1799 90.0123 92.866 90.5927C88.5521 91.173 84.7359 88.8517 84.2381 85.5354C83.8233 82.1363 86.8928 78.9858 91.2067 78.4055C95.5206 77.7422 99.3368 80.0636 99.8345 83.4627Z" fill="#E51B49"/>
<path opacity="0.9876" d="M99.3368 83.4627C99.7516 86.6132 96.848 89.5978 92.783 90.1781C88.718 90.6756 85.1507 88.6029 84.7359 85.4525C84.3211 82.302 87.2248 79.3174 91.2898 78.7371C95.2718 78.2396 98.922 80.3123 99.3368 83.4627Z" fill="#E61C49"/>
<path opacity="0.9938" d="M98.839 83.5457C99.2538 86.4474 96.5161 89.2662 92.7 89.7637C88.9668 90.2611 85.5655 88.2714 85.1507 85.3696C84.7359 82.4679 87.4736 79.6491 91.2897 79.1517C95.1058 78.6542 98.4242 80.644 98.839 83.5457Z" fill="#E71C49"/>
<path d="M98.3413 83.6286C98.6731 86.3645 96.1844 88.9346 92.6172 89.3491C89.1329 89.8466 85.9803 88.0226 85.6485 85.2867C85.3167 82.5508 87.8055 79.9807 91.3727 79.5662C94.94 79.1516 98.0094 80.8927 98.3413 83.6286Z" fill="#E81C49"/>
<path d="M173.088 49.8028C164.875 28.7447 148.947 15.2309 112.196 15.3967C76.6892 15.5626 59.3506 29.2421 51.3035 49.8028C34.3798 92.997 71.7945 131.466 90.4603 136.44C102.241 139.59 107.218 135.196 112.61 135.196C118.003 135.196 124.308 138.761 133.931 136.44C152.68 132.046 190.012 92.997 173.088 49.8028Z" fill="url(#paint0_radial_34_14457)"/>
<path d="M173.088 49.8028C164.875 28.7447 148.947 15.2309 112.196 15.3967C76.6892 15.5626 59.3506 29.2421 51.3035 49.8028C34.3798 92.997 71.7945 131.466 90.4603 136.44C102.241 139.59 107.218 135.196 112.61 135.196C118.003 135.196 124.308 138.761 133.931 136.44C152.68 132.046 190.012 92.997 173.088 49.8028ZM148.781 89.3491C141.065 104.024 128.373 113.889 122.234 115.299C121.57 115.465 115.182 118.118 103.153 118.366C94.9401 118.532 87.2249 115.63 86.3124 115.382C79.6756 113.641 66.568 103.112 58.9358 88.1056C54.2071 78.7371 49.8932 64.0627 56.3641 47.4815C61.0098 35.543 70.7161 21.7805 104.149 21.6976H104.729C137.249 21.6976 146.624 34.1336 151.85 47.4815C158.487 64.5602 153.841 79.6491 148.781 89.3491Z" fill="#E36A6C"/>
<path d="M56.8618 43.9994C64.2451 33.5532 70.716 21.8634 104.149 21.6976H104.729C124.64 21.6976 135.922 26.3404 142.808 33.0558C137 23.9361 126.796 16.6404 104.646 15.6455C74.2833 17.6352 58.8529 30.7344 51.3865 49.8029C49.9762 53.3678 48.317 60.4978 48.317 60.4978C48.317 60.4978 53.2115 49.2225 56.8618 43.9994Z" fill="#E36A6C"/>
<path d="M173.088 49.8028C170.35 42.8387 166.783 36.7037 161.888 31.6464C164.377 35.2942 166.451 39.3567 168.11 43.7507C185.034 86.9449 147.702 125.994 128.953 130.388C119.33 132.626 113.108 129.144 107.633 129.144C102.241 129.144 97.1801 133.538 85.4828 130.388C78.6802 128.564 69.4716 122.263 61.2586 112.977C70.4671 125.662 82.2473 134.284 90.4603 136.44C102.241 139.59 107.218 135.196 112.61 135.196C118.003 135.196 124.308 138.761 133.931 136.44C152.68 132.046 190.011 92.997 173.088 49.8028Z" fill="#C22629"/>
<path opacity="0.32" d="M77.4359 81.7218C77.7678 95.1526 91.8707 110.573 87.0591 112.812C73.5367 119.195 50.2253 89.2662 52.5481 64.6431C53.7925 51.3781 63.4158 36.8695 79.0122 35.2113C91.7049 33.8848 76.8552 56.1866 77.4359 81.7218Z" fill="#C40004"/>
<path d="M64.1624 90.5927C66.8171 97.8885 66.0704 99.8782 62.835 94.8209C58.9359 89.1004 58.7701 77.079 64.1624 90.5927Z" fill="#F78187"/>
<path d="M60.678 79.5662C58.7699 86.3645 49.6444 62.4046 65.4896 44.9114C68.3102 41.8439 71.6286 39.2738 75.6936 37.7815C76.855 37.3669 77.8505 38.6934 77.1039 39.6883C62.5031 59.42 62.9179 71.6901 60.678 79.5662Z" fill="#F78187"/>
<path d="M141.563 23.8532C141.563 28.6617 129.368 38.6934 114.27 38.6934C99.2542 38.6934 86.9762 28.6617 86.9762 23.8532C86.9762 19.0446 99.1713 17.5523 114.27 17.5523C129.368 17.5523 141.563 19.0446 141.563 23.8532Z" fill="url(#paint1_radial_34_14457)"/>
<path d="M135.922 29.0763C135.922 30.9831 126.216 38.5276 114.27 38.5276C102.324 38.5276 92.6173 30.9831 92.6173 29.0763C92.6173 27.1694 102.324 31.8122 114.27 31.8122C126.216 31.8122 135.922 27.1694 135.922 29.0763Z" fill="#D92B2E"/>
<path d="M110.703 30.4028C110.703 30.4028 111.698 3.20953 132.272 0.0590889C134.263 -0.272536 133.848 0.805245 134.263 2.96081C134.761 5.11637 135.341 6.35996 132.604 5.86253C129.866 5.36509 125.801 6.60869 124.142 8.01809C115.016 15.6455 114.851 27.4182 114.353 30.3199C114.27 30.3199 112.859 32.7242 110.703 30.4028Z" fill="#7D3612"/>
<path d="M140.651 55.1918C166.202 67.2132 198.308 39.2738 198.308 39.2738C198.308 39.2738 182.297 40.849 171.678 33.3875C157.077 23.0242 152.846 10.5053 135.839 6.94037C121.321 3.87284 113.108 17.9669 113.108 17.9669C113.108 17.9669 119.662 45.326 140.651 55.1918Z" fill="#668A0D"/>
<path d="M161.806 43.9995C147.205 33.6362 142.974 21.1173 125.967 17.5524C121.073 16.5575 116.842 17.4695 113.44 19.2105C113.191 18.4643 113.108 17.9669 113.108 17.9669C113.108 17.9669 121.321 3.87284 135.839 6.94037C152.846 10.5053 156.994 23.0242 171.678 33.3875C182.297 40.9319 198.308 39.2738 198.308 39.2738C198.308 39.2738 172.424 51.5439 161.806 43.9995Z" fill="#C5D676"/>
<path d="M152.763 51.2123C153.426 51.7097 153.426 52.4559 153.012 53.0362C152.431 53.7824 150.44 53.7824 149.444 53.6995C147.702 53.5337 145.96 52.9533 144.218 51.7926C137.083 47.1499 146.873 46.4866 152.763 51.2123Z" fill="#D5F789"/>
<path d="M130.779 35.6259C137.913 44.9114 142.559 45.4918 140.319 47.896C139.738 48.4764 138.909 48.6422 138.245 48.2277C128.871 43.1704 122.4 33.6362 120.243 25.2626C119.994 24.4336 120.575 23.6045 121.404 23.3558C123.727 22.8584 123.312 26.2575 130.779 35.6259Z" fill="#D5F789"/>
<defs>
<radialGradient id="paint0_radial_34_14457" cx="0" cy="0" r="1" gradientUnits="userSpaceOnUse" gradientTransform="translate(84.44 52.9102) scale(96.5746 96.5128)">
<stop stop-color="#C61823"/>
<stop offset="0.5478" stop-color="#9D0B12"/>
<stop offset="0.9948" stop-color="#800106"/>
</radialGradient>
<radialGradient id="paint1_radial_34_14457" cx="0" cy="0" r="1" gradientUnits="userSpaceOnUse" gradientTransform="translate(112.565 14.4839) scale(24.0682 24.0528)">
<stop stop-color="#C61823"/>
<stop offset="1" stop-color="#9F0B13"/>
</radialGradient>
</defs>
</svg>
