<svg width="88" height="79" viewBox="0 0 88 79" fill="none" xmlns="http://www.w3.org/2000/svg">
<path d="M48.3928 78.2932C46.9174 78.2932 40.6716 78.2932 39.147 78.2932C17.5571 78.2932 0 60.6981 0 39.122C0 17.5459 17.5571 0 39.147 0C40.6224 0 46.8682 0 48.3928 0C69.9827 0 87.5398 17.5459 87.5398 39.122C87.5398 60.6981 69.9827 78.2932 48.3928 78.2932Z" fill="#E34207"/>
<path d="M48.3928 75.7866C68.6551 75.7866 85.0809 59.3713 85.0809 39.122C85.0809 18.8727 68.6551 2.4574 48.3928 2.4574C28.1306 2.4574 11.7048 18.8727 11.7048 39.122C11.7048 59.3713 28.1306 75.7866 48.3928 75.7866Z" fill="#E06200"/>
<path opacity="0.88" d="M48.3928 75.8358C68.4089 75.8358 84.6874 59.8134 85.0808 39.9084C70.5728 54.7512 55.3271 60.0592 32.2127 56.9137C26.262 56.0782 21.0981 56.3239 16.5244 57.3069C22.8194 68.3652 34.7209 75.8358 48.3928 75.8358Z" fill="#F2D394"/>
<path d="M39.147 75.7866C59.4093 75.7866 75.8351 59.3713 75.8351 39.122C75.8351 18.8727 59.4093 2.4574 39.147 2.4574C18.8848 2.4574 2.45898 18.8727 2.45898 39.122C2.45898 59.3713 18.8848 75.7866 39.147 75.7866Z" fill="#FEE266"/>
<path d="M39.147 74.1647C19.8194 74.1647 4.08191 58.4373 4.08191 39.122C4.08191 19.8067 19.8194 4.07928 39.147 4.07928C58.4746 4.07928 74.2121 19.8067 74.2121 39.122C74.2121 58.4373 58.4746 74.1647 39.147 74.1647Z" fill="url(#paint0_linear_34_14967)"/>
<g style="mix-blend-mode:screen" opacity="0.61">
<path d="M39.147 4.07928C19.8194 4.07928 4.08191 19.8067 4.08191 39.122C4.08191 43.103 4.77042 46.8874 5.99992 50.4752C25.7701 30.3245 45.2453 18.6272 61.2287 11.943C55.1796 7.02818 47.5076 4.07928 39.147 4.07928Z" fill="url(#paint1_linear_34_14967)"/>
</g>
<path opacity="0.88" d="M39.1471 74.1647C58.4747 74.1647 74.2122 58.4373 74.2122 39.122C74.2122 36.1731 73.8187 33.3225 73.1302 30.6194C60.5894 42.4641 41.606 57.2577 17.7047 66.7925C23.6555 71.4124 31.0816 74.1647 39.1471 74.1647Z" fill="#FDDB84"/>
<path d="M39.1471 64.3351C25.2292 64.3351 13.9179 53.031 13.9179 39.1221C13.9179 25.2131 25.2292 13.909 39.1471 13.909C53.0649 13.909 64.3762 25.2131 64.3762 39.1221C64.3762 53.031 53.0649 64.3351 39.1471 64.3351Z" fill="url(#paint2_linear_34_14967)"/>
<path d="M37.9336 41.1738C37.153 40.8346 36.4063 40.4955 35.7614 40.1563C35.1165 39.8171 34.5735 39.444 34.0983 39.003C33.6571 38.5621 33.3177 38.0533 33.0801 37.4767C32.8425 36.9001 32.7746 36.1878 32.8425 35.3737C32.9444 34.1187 33.4195 33.0672 34.2341 32.2871C35.0826 31.473 36.2366 30.9643 37.696 30.7608L37.8657 28.5221C38.0354 28.4882 38.307 28.4543 38.6464 28.4543C38.9858 28.4204 39.3591 28.4204 39.7325 28.4543C40.4452 28.5221 41.0222 28.6578 41.3956 28.9631C41.7689 29.2344 41.9386 29.7771 41.9046 30.5912L41.8707 30.9643C43.0247 31.2017 43.9071 31.5748 44.5859 32.0497C45.2648 32.5585 45.5363 33.169 45.5024 33.9491C45.4684 34.424 45.3326 34.831 45.0611 35.1702C44.8235 35.5094 44.5181 35.7807 44.1787 35.9843C43.8053 35.679 43.2623 35.4416 42.5835 35.1702C41.9047 34.9328 41.158 34.7632 40.3434 34.7293C39.4949 34.6614 38.884 34.7293 38.4767 34.9328C38.0694 35.1363 37.8657 35.4076 37.8318 35.7807C37.7979 36.0521 37.8997 36.2895 38.1372 36.493C38.3748 36.6965 38.7142 36.8661 39.1894 37.0697L40.6149 37.6463C42.3119 38.3247 43.6017 39.1387 44.4841 40.0545C45.3666 40.9703 45.7399 42.1914 45.6381 43.6838C45.5363 44.9388 45.0611 45.9903 44.2126 46.8044C43.3641 47.6184 42.1422 48.1272 40.581 48.3307L40.4113 50.5694C40.2416 50.6033 39.97 50.6372 39.6306 50.6372C39.2912 50.6711 38.9179 50.6711 38.5445 50.6372C37.8318 50.5694 37.2548 50.4337 36.8815 50.1284C36.5081 49.8571 36.3384 49.3144 36.3723 48.5003L36.4063 48.229C35.7614 48.0933 35.1505 47.9576 34.6075 47.7202C34.0644 47.5167 33.6232 47.2792 33.2498 46.974C32.8765 46.6687 32.571 46.3634 32.4013 45.9903C32.1977 45.6172 32.1298 45.2102 32.1637 44.7692C32.1977 44.2265 32.4013 43.7856 32.7407 43.4125C33.0801 43.0394 33.4535 42.8019 33.8268 42.5984C34.302 43.0394 34.9129 43.4464 35.6596 43.7856C36.3724 44.1248 37.1869 44.3622 38.1033 44.3961C39.0197 44.464 39.6646 44.3622 40.0379 44.1248C40.4452 43.8873 40.6489 43.5482 40.6489 43.209C40.6828 42.8359 40.547 42.5306 40.2755 42.3271C40.004 42.1236 39.5967 41.8861 39.0537 41.6826L37.9336 41.1738Z" fill="#853A0F"/>
<path opacity="0.49" d="M64.3762 39.122C64.6713 43.103 63.8844 47.2315 62.114 50.9176C60.3927 54.6529 57.5894 57.8475 54.2452 60.2558C50.901 62.6641 46.9175 64.1877 42.8355 64.63C40.8192 64.8757 38.8028 64.8757 36.7864 64.63C34.7701 64.2859 32.8029 63.7945 30.9832 62.9589C34.8684 63.9419 38.852 64.0894 42.688 63.4013C46.524 62.6641 50.2125 61.2388 53.3108 58.9288C56.4583 56.668 59.114 53.7682 60.9828 50.3278C62.9009 46.9858 64.032 43.103 64.3762 39.122Z" fill="#FFE279"/>
<g style="mix-blend-mode:screen" opacity="0.6">
<path d="M14.0162 39.9084C14.0654 42.759 14.6555 45.4621 15.59 48.0178L53.4091 18.3814C51.1469 16.8087 48.6387 15.6291 45.8846 14.8919L14.0162 39.9084Z" fill="url(#paint3_linear_34_14967)"/>
</g>
<path d="M18.5899 44.9215C18.5899 31.0126 29.9013 19.7085 43.8191 19.7085C50.4584 19.7085 56.4583 22.3133 60.9828 26.4909C56.5567 19.0204 48.442 13.9581 39.1471 13.9581C25.2292 13.9581 13.9179 25.2622 13.9179 39.1712C13.9179 46.4451 17.0162 52.9818 21.9833 57.6018C19.8194 53.8174 18.5899 49.4923 18.5899 44.9215Z" fill="#E06200"/>
<path opacity="0.59" d="M18.1965 12.5819C15.5408 14.6462 4.52456 24.0826 10.9179 26.9824C14.4589 29.3906 20.508 17.3985 22.426 15.6291C27.4423 11.1075 23.9014 8.84666 18.1965 12.5819Z" fill="#FFFFF5"/>
<path opacity="0.59" d="M6.78682 30.8651C5.45897 32.487 4.67209 39.6626 8.50811 38.778C11.8031 38.0407 11.213 33.2733 11.7048 31.7498C12.4425 29.3415 8.75401 27.2773 6.78682 30.8651Z" fill="#FFFFF5"/>
<defs>
<linearGradient id="paint0_linear_34_14967" x1="4.10404" y1="39.1387" x2="74.222" y2="39.1387" gradientUnits="userSpaceOnUse">
<stop stop-color="#FFD23D"/>
<stop offset="1" stop-color="#F07A13"/>
</linearGradient>
<linearGradient id="paint1_linear_34_14967" x1="4.10404" y1="27.2979" x2="61.2208" y2="27.2979" gradientUnits="userSpaceOnUse">
<stop stop-color="#FFCC96"/>
<stop offset="0.3508" stop-color="#9B7C5B"/>
<stop offset="0.6686" stop-color="#48392A"/>
<stop offset="0.8914" stop-color="#14100C"/>
<stop offset="1"/>
</linearGradient>
<linearGradient id="paint2_linear_34_14967" x1="13.9543" y1="39.1388" x2="64.3713" y2="39.1388" gradientUnits="userSpaceOnUse">
<stop stop-color="#F9AB08"/>
<stop offset="1" stop-color="#DE7111"/>
</linearGradient>
<linearGradient id="paint3_linear_34_14967" x1="13.9931" y1="31.4603" x2="53.4416" y2="31.4603" gradientUnits="userSpaceOnUse">
<stop stop-color="#FFCC96"/>
<stop offset="0.3508" stop-color="#9B7C5B"/>
<stop offset="0.6686" stop-color="#48392A"/>
<stop offset="0.8914" stop-color="#14100C"/>
<stop offset="1"/>
</linearGradient>
</defs>
</svg>
