<svg width="100" height="100" viewBox="0 0 100 100" fill="none" xmlns="http://www.w3.org/2000/svg">
<g clip-path="url(#clip0_100_2)">
<g clip-path="url(#clip1_100_2)">
<path d="M6.02555 51.8136L9.77858 46.1876H0.105369C-0.00420944 46.1878 -0.11169 46.2176 -0.205649 46.274C-0.299606 46.3304 -0.376529 46.4112 -0.428239 46.5078C-0.479948 46.6044 -0.504512 46.7132 -0.499318 46.8227C-0.494125 46.9321 -0.459368 47.0382 -0.398743 47.1294L10.1356 62.9363C10.2432 63.0974 10.3889 63.2295 10.5598 63.3209C10.7306 63.4122 10.9214 63.4601 11.1151 63.4602H25.4222C25.5318 63.46 25.6393 63.4301 25.7332 63.3737C25.8272 63.3173 25.9041 63.2365 25.9558 63.1399C26.0075 63.0433 26.0321 62.9345 26.0269 62.8251C26.0217 62.7156 25.987 62.6096 25.9263 62.5183L19.4231 52.7608H6.52968C6.41923 52.7612 6.31077 52.7316 6.21596 52.6749C6.12118 52.6182 6.04363 52.5368 5.99177 52.4393C5.93988 52.3418 5.9156 52.232 5.92156 52.1217C5.92752 52.0115 5.96348 51.9049 6.02555 51.8136Z" fill="#FCFCFC"/>
<path d="M21.8163 52.2369L32.3507 36.4301C32.4118 36.3389 32.4472 36.2328 32.4528 36.1231C32.4581 36.0134 32.4336 35.9043 32.382 35.8075C32.3301 35.7107 32.2528 35.6298 32.1584 35.5735C32.0643 35.5173 31.9563 35.4878 31.8466 35.4882H17.5394C17.3456 35.4883 17.1549 35.5361 16.984 35.6275C16.8132 35.7189 16.6675 35.851 16.5599 36.0121L9.77856 46.1876H14.4142C14.6078 46.1875 14.7983 46.2353 14.9689 46.3267C15.1395 46.4181 15.2848 46.5502 15.392 46.7114L19.4231 52.7608H20.8475C21.041 52.7604 21.2313 52.7124 21.4018 52.6211C21.5723 52.5297 21.7177 52.3978 21.8252 52.2369" fill="#A182ED"/>
<path d="M38.775 43.6025C38.7738 43.5218 38.7888 43.4417 38.8189 43.3669C38.8493 43.2922 38.8944 43.2243 38.9514 43.1672C39.0086 43.1102 39.0764 43.0651 39.1511 43.0348C39.226 43.0045 39.3059 42.9895 39.3868 42.9907H42.3756C42.5369 42.993 42.6912 43.0582 42.8056 43.1725C42.9198 43.2867 42.985 43.4409 42.9874 43.6025V50.3066L48.6472 43.2455C48.7714 43.1033 48.9443 43.0124 49.1316 42.9907H52.3428C52.4517 42.9925 52.5576 43.0244 52.6493 43.0828C52.741 43.1412 52.8148 43.2238 52.8623 43.3215C52.9098 43.4193 52.9292 43.5283 52.9186 43.6364C52.9083 43.7446 52.8679 43.8477 52.8021 43.9343L46.8319 51.4045L53.3331 59.8686C53.3959 59.958 53.4331 60.0628 53.4407 60.1717C53.4481 60.2806 53.426 60.3896 53.3761 60.4867C53.326 60.5839 53.2508 60.6655 53.1579 60.7229C53.0649 60.7803 52.9582 60.8112 52.8487 60.8123H49.3289C49.1596 60.8106 48.9968 60.7467 48.8714 60.6328L42.9818 52.6281V60.2256C42.9791 60.3861 42.9145 60.5393 42.8015 60.6533C42.6885 60.7673 42.536 60.8332 42.3756 60.8374H39.3868C39.3062 60.8383 39.226 60.8232 39.1514 60.7928C39.0767 60.7624 39.0089 60.7173 38.952 60.6603C38.895 60.6033 38.8499 60.5355 38.8195 60.4609C38.7891 60.3862 38.7741 60.3062 38.775 60.2256V43.6025Z" fill="#FCFCFC"/>
<path d="M63.4298 57.0161C64.4407 57.0214 65.4303 56.7263 66.2731 56.168C67.1159 55.6098 67.7737 54.8137 68.1631 53.8809C68.5528 52.9481 68.656 51.9205 68.4604 50.9288C68.2649 49.937 67.779 49.0257 67.0643 48.3107C66.3498 47.5956 65.4389 47.109 64.4472 46.9127C63.4557 46.7163 62.428 46.8191 61.4949 47.2079C60.5616 47.5967 59.7652 48.254 59.2065 49.0964C58.6475 49.9388 58.3516 50.9282 58.3563 51.9391C58.3649 53.2824 58.902 54.5683 59.8513 55.5185C60.8009 56.4687 62.0864 57.0067 63.4298 57.0161ZM63.4298 42.7395C65.2451 42.7338 67.0215 43.2667 68.5339 44.2706C70.0466 45.2745 71.2274 46.7045 71.9271 48.3796C72.6271 50.0547 72.8144 51.8997 72.4655 53.6813C72.1165 55.4628 71.2472 57.1009 69.9672 58.3883C68.6873 59.6758 67.0545 60.5548 65.2749 60.9141C63.4955 61.2734 61.6492 61.0969 59.9702 60.4069C58.2911 59.7169 56.8542 58.5445 55.8413 57.0379C54.8286 55.5312 54.2852 53.7581 54.2805 51.9427C54.2749 50.7371 54.5073 49.5423 54.9646 48.4268C55.4218 47.3113 56.0947 46.297 56.9448 45.442C57.7947 44.587 58.805 43.9082 59.918 43.4445C61.0306 42.9807 62.2242 42.7412 63.4298 42.7395Z" fill="#FCFCFC"/>
<path d="M79.2366 42.9907H76.1778C75.9103 42.9907 75.6935 43.2076 75.6935 43.4751V60.353C75.6935 60.6205 75.9103 60.8374 76.1778 60.8374H79.2366C79.5041 60.8374 79.7209 60.6205 79.7209 60.353V43.4751C79.7209 43.2076 79.5041 42.9907 79.2366 42.9907Z" fill="#FCFCFC"/>
<path d="M84.0823 43.2024C84.0879 43.0782 84.1416 42.961 84.2318 42.8756C84.3221 42.7903 84.4422 42.7434 84.5666 42.7449H85.2035L95.3773 52.5312H95.4023V43.4751C95.4023 43.4115 95.4147 43.3485 95.4392 43.2897C95.4634 43.231 95.4991 43.1776 95.5442 43.1326C95.5891 43.0876 95.6424 43.0519 95.7014 43.0276C95.7601 43.0032 95.823 42.9907 95.8867 42.9907H98.9454C99.0725 42.9952 99.1932 43.0476 99.2829 43.1375C99.3728 43.2274 99.4253 43.348 99.4298 43.4751V60.6328C99.4247 60.7574 99.3714 60.875 99.2808 60.9608C99.1902 61.0465 99.0702 61.0936 98.9454 61.0921H98.5383C98.4191 61.0763 98.3053 61.0327 98.2065 60.9647L88.1365 50.843H88.1115V60.3512C88.1115 60.4797 88.0604 60.6029 87.9696 60.6937C87.8787 60.7845 87.7557 60.8356 87.6271 60.8356H84.5917C84.4646 60.8311 84.3439 60.7787 84.2542 60.6887C84.1643 60.5989 84.1118 60.4782 84.1073 60.3512L84.0823 43.2024Z" fill="#FCFCFC"/>
</g>
</g>
<defs>
<clipPath id="clip0_100_2">
<rect width="100" height="100" fill="white"/>
</clipPath>
<clipPath id="clip1_100_2">
<rect width="100" height="28.0236" fill="white" transform="translate(-0.5 35.4882)"/>
</clipPath>
</defs>
</svg>
