<svg width="157" height="157" viewBox="0 0 157 157" fill="none" xmlns="http://www.w3.org/2000/svg">
<g style="mix-blend-mode:screen">
<path d="M78.0647 156.03C121.179 156.03 156.129 121.101 156.129 78.0148C156.129 34.9284 121.179 0 78.0647 0C34.9508 0 0 34.9284 0 78.0148C0 121.101 34.9508 156.03 78.0647 156.03Z" fill="url(#paint0_radial_34_14432)"/>
</g>
<path d="M136.053 14.3429C136.053 42.6968 119.378 57.537 108.594 82.2431C105.856 88.461 103.616 95.5081 101.708 103.301C99.8829 111.094 98.9705 120.131 98.9705 130.329H55.2508C55.2508 79.5901 80.3045 71.8798 106.851 43.4429L106.188 42.7797C103.948 44.8524 101.625 46.4276 99.2193 47.5882C82.7934 55.796 61.8046 30.0121 61.8046 60.4387H37.4976V14.3429H61.8046V21.6386C72.5064 3.23342 99.9658 19.2343 110.17 19.2343C113.405 19.2343 117.47 17.4104 118.632 14.3429H136.053Z" fill="#D98200"/>
<path d="M127.426 14.3429C127.426 42.6968 110.751 57.537 99.9661 82.2431C97.2285 88.461 94.9884 95.5081 93.0804 103.301C91.2553 111.094 90.3428 120.131 90.3428 130.329H46.6231C46.6231 79.5901 71.6769 71.8798 98.2238 43.4429L97.5603 42.7797C95.3204 44.8524 92.9975 46.4276 90.5917 47.5882C74.1658 55.796 53.177 30.0121 53.177 60.4387H28.87V14.3429H53.177V21.6386C63.8787 3.23342 91.3384 19.2343 101.542 19.2343C104.778 19.2343 108.843 17.4104 110.004 14.3429H127.426Z" fill="#FDF5A7"/>
<path d="M50.1074 126.847C50.937 91.9432 64.4595 79.7559 82.8764 63.0088C88.6006 57.7858 94.5736 52.3968 100.713 45.8473L101.459 45.0182C102.289 44.1062 102.289 42.6139 101.376 41.7019L99.2194 39.5464C98.3069 38.6345 96.8964 38.6344 95.9839 39.4635L95.1542 40.2096C93.1632 42.0336 91.0893 43.443 89.0153 44.5208C87.1902 45.4328 85.1991 45.8473 82.9592 45.8473C79.309 45.8473 75.41 44.7695 71.5938 43.6917C68.0266 42.6969 64.7083 41.7019 61.5558 41.7019C51.8496 41.7019 50.1073 50.9045 49.7755 57.0396H32.354V17.9079H49.6927V29.9293C49.6927 30.5096 50.1075 31.0071 50.6882 31.1729C51.2689 31.3387 51.8495 31.09 52.0984 30.5925L56.2463 23.4626C59.0669 18.5711 63.4638 16.3326 70.0176 16.3326C76.2395 16.3326 83.1251 18.3224 89.1812 20.1463C94.0758 21.5557 98.3067 22.7993 101.625 22.7993C105.192 22.7993 109.672 21.1412 112.078 17.9079H123.858C123.029 34.3233 116.226 45.8473 108.428 59.0294C104.446 65.8277 100.298 72.7918 96.7305 80.9166C93.9099 87.3004 91.587 94.5962 89.6789 102.555C88.0197 109.685 87.0242 117.81 86.8583 126.93H50.1074V126.847Z" fill="url(#paint1_linear_34_14432)"/>
<path opacity="0.7" d="M56.2463 23.4626L52.0984 30.5925C51.7665 31.09 51.1859 31.3387 50.6882 31.1729C50.1075 31.0071 49.6927 30.5096 49.6927 29.9293V17.9079H32.354V50.0755C44.2172 39.6293 60.1454 27.3592 78.5624 17.3275C75.6588 16.7472 72.7554 16.3326 69.9348 16.3326C63.381 16.3326 59.0669 18.5711 56.2463 23.4626Z" fill="#FFFB8B"/>
<path opacity="0.53" d="M89.5961 102.472C91.5041 94.5133 93.8268 87.2175 96.6474 80.8337C99.551 74.2012 102.786 68.3978 106.105 62.7601C89.596 67.1542 72.5063 78.7611 58.5691 90.285C53.5086 99.4047 50.4392 110.68 50.1074 126.764H86.7755C87.0243 117.81 87.9369 109.602 89.5961 102.472Z" fill="#FEDD93"/>
<defs>
<radialGradient id="paint0_radial_34_14432" cx="0" cy="0" r="1" gradientUnits="userSpaceOnUse" gradientTransform="translate(78.0747 78.0264) scale(76.6262 76.5772)">
<stop offset="7e-08" stop-color="#FCC710"/>
<stop offset="0.0387" stop-color="#EEBC0F"/>
<stop offset="0.2474" stop-color="#A7840B"/>
<stop offset="0.4443" stop-color="#6B5507"/>
<stop offset="0.6233" stop-color="#3D3004"/>
<stop offset="0.7814" stop-color="#1C1602"/>
<stop offset="0.9123" stop-color="#070600"/>
<stop offset="1"/>
</radialGradient>
<linearGradient id="paint1_linear_34_14432" x1="50.1637" y1="5.38653" x2="110.833" y2="115.961" gradientUnits="userSpaceOnUse">
<stop stop-color="#F9C615"/>
<stop offset="0.0783" stop-color="#FAD02A"/>
<stop offset="0.2656" stop-color="#FCE458"/>
<stop offset="0.4323" stop-color="#FEF379"/>
<stop offset="0.5706" stop-color="#FFFC8E"/>
<stop offset="0.6632" stop-color="#FFFF95"/>
<stop offset="0.7978" stop-color="#FBE156"/>
<stop offset="0.9343" stop-color="#F7C51D"/>
<stop offset="1" stop-color="#F5BA06"/>
</linearGradient>
</defs>
</svg>
